<svg id="svg" version="1.1" xmlns="http://www.w3.org/2000/svg" xmlns:xlink="http://www.w3.org/1999/xlink" width="400" height="146.3659147869674" viewBox="0, 0, 400,146.3659147869674"><g id="svgg"><path id="path0" d="M97.908 0.156 C 97.756 0.306,96.268 1.100,93.417 2.553 C 92.683 2.927,92.046 3.274,92.000 3.325 C 91.954 3.375,90.867 3.948,89.583 4.598 C 86.355 6.233,84.432 7.235,84.333 7.333 C 84.287 7.379,83.762 7.667,83.167 7.973 C 82.571 8.279,81.483 8.837,80.750 9.214 C 80.017 9.591,79.379 9.941,79.333 9.991 C 79.287 10.042,78.050 10.695,76.583 11.442 L 73.917 12.801 73.874 22.067 C 73.848 27.503,73.893 31.333,73.981 31.333 C 74.064 31.333,75.846 30.464,77.941 29.401 C 88.351 24.121,90.443 23.055,90.750 22.876 C 91.292 22.560,98.482 19.000,98.578 19.000 C 98.627 19.000,98.667 31.750,98.667 47.333 C 98.667 71.221,98.703 75.667,98.895 75.667 C 99.021 75.667,99.677 75.900,100.353 76.186 C 102.080 76.916,103.906 77.662,106.458 78.683 C 108.764 79.606,110.252 80.204,110.583 80.343 C 110.767 80.419,111.329 80.644,111.833 80.843 C 112.337 81.041,112.975 81.300,113.250 81.419 C 113.525 81.538,114.425 81.913,115.250 82.252 C 116.075 82.592,116.900 82.935,117.083 83.015 C 117.267 83.095,118.429 83.566,119.667 84.063 C 120.904 84.559,122.142 85.059,122.417 85.173 C 122.692 85.287,123.142 85.474,123.417 85.588 C 123.692 85.703,124.085 85.847,124.292 85.909 L 124.667 86.022 124.667 54.715 C 124.667 25.106,124.651 23.394,124.375 23.154 C 123.465 22.364,120.684 19.873,120.306 19.510 C 119.596 18.827,115.683 15.295,114.870 14.602 C 114.642 14.408,114.260 14.059,114.020 13.826 C 113.514 13.335,112.130 12.079,110.265 10.417 C 109.544 9.775,108.675 8.987,108.332 8.667 C 107.533 7.919,105.274 5.879,104.437 5.147 C 104.082 4.837,103.482 4.283,103.104 3.917 C 102.726 3.550,101.780 2.688,101.002 2.000 C 100.224 1.313,99.400 0.581,99.170 0.375 C 98.736 -0.016,98.180 -0.112,97.908 0.156 M73.729 86.125 C 73.843 102.583,74.038 114.094,74.205 114.261 C 74.256 114.311,77.061 114.422,80.440 114.508 C 83.819 114.593,87.783 114.737,89.250 114.826 C 90.717 114.916,92.498 114.992,93.208 114.995 L 94.500 115.000 94.500 96.525 L 94.500 78.050 93.375 77.591 C 92.756 77.339,91.875 76.986,91.417 76.807 C 90.958 76.629,90.433 76.416,90.250 76.336 C 90.067 76.256,88.717 75.727,87.250 75.160 C 85.783 74.593,84.358 74.033,84.083 73.914 C 83.808 73.795,83.246 73.569,82.833 73.412 C 82.421 73.255,81.933 73.065,81.750 72.989 C 81.567 72.913,81.004 72.689,80.500 72.491 C 79.996 72.292,79.358 72.033,79.083 71.914 C 78.808 71.795,78.246 71.569,77.833 71.412 C 77.421 71.255,76.933 71.065,76.750 70.989 C 76.567 70.913,76.004 70.691,75.500 70.495 C 74.996 70.299,74.453 70.070,74.294 69.986 C 74.135 69.902,73.917 69.833,73.810 69.833 C 73.662 69.833,73.643 73.753,73.729 86.125 M44.250 95.025 C 43.656 95.219,42.151 95.630,41.333 95.822 C 41.012 95.897,39.850 96.198,38.750 96.491 C 37.650 96.785,36.375 97.124,35.917 97.246 C 35.458 97.368,34.483 97.632,33.750 97.832 C 33.017 98.032,31.592 98.410,30.583 98.672 C 29.575 98.934,28.300 99.273,27.750 99.425 C 27.200 99.578,26.525 99.762,26.250 99.835 C 25.975 99.907,25.018 100.162,24.123 100.400 C 23.228 100.638,22.469 100.833,22.436 100.833 C 22.318 100.833,22.129 127.804,22.245 127.992 C 22.332 128.133,22.429 128.128,22.616 127.973 C 22.982 127.669,23.311 127.493,26.083 126.115 C 29.174 124.580,30.028 124.203,33.500 122.842 C 34.004 122.644,34.567 122.416,34.750 122.334 C 34.933 122.253,35.571 122.020,36.167 121.816 C 36.762 121.613,37.321 121.383,37.408 121.306 C 37.495 121.230,37.672 121.167,37.800 121.167 C 37.928 121.167,38.269 121.062,38.558 120.933 C 38.847 120.805,39.233 120.659,39.417 120.609 C 39.600 120.559,40.950 120.095,42.417 119.580 C 43.883 119.064,45.215 118.601,45.375 118.551 C 45.649 118.467,45.667 117.753,45.667 106.647 L 45.667 94.833 45.208 94.848 C 44.956 94.856,44.525 94.935,44.250 95.025 " stroke="none" fill="#9cc444" fill-rule="evenodd"></path><path id="path1" d="M179.294 33.448 C 179.135 33.489,178.867 33.837,178.698 34.220 C 178.530 34.603,178.252 35.234,178.082 35.621 L 177.773 36.325 175.261 36.371 L 172.750 36.417 172.706 40.958 L 172.661 45.500 170.837 45.500 C 168.678 45.500,168.667 45.509,168.667 47.322 C 168.667 49.027,168.844 49.167,171.006 49.167 L 172.678 49.167 172.572 50.042 C 172.227 52.878,171.355 54.881,169.918 56.143 C 168.394 57.481,168.381 60.984,169.901 60.602 C 172.534 59.941,176.049 56.125,176.904 53.000 C 177.067 52.404,177.270 51.740,177.355 51.524 C 177.439 51.308,177.555 50.690,177.611 50.149 L 177.714 49.167 181.774 49.167 L 185.833 49.167 185.833 52.242 C 185.833 56.452,185.803 56.498,183.034 56.503 C 180.910 56.506,180.917 56.501,180.917 58.236 C 180.917 60.166,180.768 60.086,184.301 60.071 C 187.620 60.057,188.739 59.743,189.540 58.604 C 190.278 57.553,190.333 57.555,190.333 58.636 C 190.333 60.186,190.620 60.438,192.096 60.182 C 196.500 59.419,196.286 59.471,201.043 58.007 C 202.529 57.550,202.716 57.526,203.209 57.737 C 203.507 57.864,204.162 58.085,204.667 58.229 C 205.171 58.373,206.363 58.718,207.317 58.995 C 208.270 59.273,209.170 59.499,209.317 59.498 C 209.463 59.497,210.108 59.605,210.750 59.738 C 214.981 60.617,215.167 60.565,215.167 58.515 C 215.167 56.807,215.111 56.725,213.809 56.503 C 211.533 56.115,210.796 55.966,209.125 55.551 C 207.075 55.042,207.094 55.065,208.055 54.314 C 208.452 54.004,209.325 53.150,209.996 52.417 C 210.666 51.683,211.495 50.781,211.838 50.411 C 213.433 48.692,214.040 46.511,213.241 45.370 L 212.981 45.000 203.449 44.979 C 198.206 44.968,194.217 44.908,194.583 44.846 C 197.254 44.398,198.944 42.688,199.115 40.260 L 199.216 38.833 202.250 38.833 L 205.284 38.833 205.379 40.411 C 205.579 43.770,207.197 44.833,212.108 44.833 C 215.102 44.833,215.000 44.901,215.000 42.917 C 215.000 41.008,214.991 41.000,212.900 41.000 C 210.408 41.000,210.500 41.095,210.500 38.519 C 210.500 36.171,210.325 35.379,209.775 35.243 C 208.944 35.037,194.521 35.246,194.300 35.466 C 194.149 35.617,194.070 36.352,194.038 37.883 C 193.974 41.018,193.755 41.424,191.888 41.885 L 191.083 42.083 191.109 43.583 C 191.123 44.408,191.137 45.807,191.140 46.691 C 191.146 48.397,191.362 48.833,192.204 48.833 C 192.394 48.833,192.500 48.959,192.500 49.185 C 192.500 49.805,195.332 52.972,197.292 54.545 C 197.591 54.784,197.773 55.018,197.698 55.064 C 197.567 55.145,195.190 55.817,194.667 55.922 C 194.529 55.949,193.779 56.095,193.000 56.247 C 192.221 56.399,191.348 56.583,191.059 56.657 C 190.536 56.791,190.536 56.790,190.684 56.272 C 190.924 55.435,190.876 36.776,190.633 36.533 C 190.491 36.391,189.438 36.333,186.955 36.333 L 183.478 36.333 183.592 35.958 C 183.655 35.752,183.810 35.330,183.937 35.021 C 184.513 33.613,184.095 33.327,181.505 33.353 C 180.448 33.363,179.453 33.406,179.294 33.448 M230.268 33.597 C 230.212 33.742,230.167 34.529,230.167 35.347 L 230.167 36.833 226.595 36.833 C 222.293 36.833,222.500 36.735,222.500 38.773 C 222.500 40.979,222.217 40.833,226.506 40.833 L 230.167 40.833 230.167 48.750 L 230.167 56.667 225.867 56.667 C 220.801 56.667,221.167 56.510,221.167 58.680 C 221.167 60.834,220.607 60.655,227.502 60.706 L 233.393 60.750 232.287 61.861 C 231.679 62.471,230.897 63.184,230.549 63.443 C 230.201 63.702,229.879 63.953,229.833 63.999 C 229.787 64.045,229.496 64.225,229.185 64.398 C 228.875 64.571,228.494 64.839,228.339 64.994 C 228.097 65.237,225.397 66.609,224.417 66.988 C 223.614 67.298,222.886 67.540,222.500 67.626 C 221.432 67.862,221.333 68.055,221.333 69.910 C 221.333 71.866,221.500 72.101,222.662 71.787 C 224.650 71.250,225.217 71.063,226.417 70.548 C 227.150 70.234,227.900 69.913,228.083 69.835 C 228.391 69.704,231.286 68.334,231.519 68.209 C 231.576 68.179,231.661 68.501,231.709 68.925 C 231.844 70.123,231.640 70.078,237.175 70.132 L 242.167 70.181 242.167 72.424 L 242.167 74.667 233.367 74.667 C 223.202 74.667,224.167 74.457,224.167 76.667 C 224.167 77.689,224.239 78.339,224.367 78.467 C 224.764 78.864,265.280 78.744,265.494 78.344 C 265.589 78.167,265.667 77.412,265.667 76.667 C 265.667 74.441,266.703 74.667,256.494 74.667 L 247.667 74.667 247.667 72.417 L 247.667 70.167 252.292 70.164 C 257.982 70.162,258.000 70.157,258.000 68.671 L 258.000 68.190 260.081 69.179 C 261.226 69.722,262.241 70.167,262.337 70.167 C 262.433 70.167,262.865 70.344,263.297 70.561 C 263.730 70.778,264.683 71.123,265.417 71.329 C 266.150 71.534,266.949 71.763,267.192 71.837 C 268.082 72.108,268.334 71.690,268.331 69.949 C 268.327 67.974,268.265 67.907,265.714 67.147 C 265.420 67.059,265.134 66.915,265.080 66.827 C 265.025 66.739,264.850 66.667,264.691 66.667 C 264.318 66.667,261.475 65.219,261.232 64.905 C 261.130 64.774,260.993 64.667,260.927 64.667 C 260.862 64.667,260.369 64.329,259.833 63.917 C 259.297 63.504,258.815 63.167,258.761 63.167 C 258.708 63.167,258.137 62.623,257.493 61.958 L 256.323 60.750 262.203 60.709 C 269.140 60.661,268.667 60.809,268.667 58.685 C 268.667 56.553,268.938 56.667,263.824 56.667 L 259.500 56.667 259.500 48.750 L 259.500 40.833 263.071 40.833 C 267.387 40.833,267.167 40.941,267.167 38.833 C 267.167 36.726,267.387 36.833,263.071 36.833 L 259.500 36.833 259.500 35.406 C 259.500 33.251,259.612 33.333,256.679 33.333 C 253.794 33.333,254.000 33.178,254.000 35.347 L 254.000 36.833 244.917 36.833 L 235.833 36.833 235.833 35.283 C 235.833 34.300,235.760 33.660,235.633 33.533 C 235.299 33.199,230.398 33.257,230.268 33.597 M342.713 33.503 C 342.364 33.644,342.148 33.980,341.374 35.583 C 341.023 36.312,340.706 36.779,338.833 39.334 C 338.146 40.272,337.475 41.199,337.344 41.395 C 336.489 42.661,331.714 47.609,330.226 48.770 C 329.194 49.576,328.913 52.788,329.810 53.515 C 330.276 53.892,335.246 53.946,344.000 53.669 C 346.704 53.583,349.910 53.503,351.125 53.490 C 352.340 53.477,353.333 53.407,353.333 53.334 C 353.333 53.261,354.440 53.152,355.792 53.091 C 357.924 52.996,361.459 52.711,364.255 52.409 L 365.094 52.318 365.557 53.836 C 366.235 56.059,366.196 56.035,369.082 55.970 C 370.397 55.941,371.532 55.858,371.603 55.786 C 371.821 55.568,371.749 54.573,371.466 53.893 C 371.319 53.539,371.033 52.837,370.831 52.333 C 370.315 51.049,369.694 49.659,369.418 49.167 C 369.289 48.938,368.857 48.112,368.457 47.333 C 367.255 44.991,365.144 41.332,364.298 40.125 L 363.977 39.667 361.772 39.667 C 358.480 39.667,358.485 39.642,360.912 43.750 C 361.831 45.306,363.196 48.026,363.104 48.118 C 362.787 48.435,353.333 48.862,344.583 48.955 L 336.750 49.038 339.433 46.394 C 342.221 43.648,343.833 41.865,343.833 41.529 C 343.833 41.421,343.902 41.333,343.986 41.333 C 344.071 41.333,344.292 41.086,344.479 40.784 C 344.666 40.482,344.976 40.051,345.169 39.826 C 345.950 38.916,346.107 38.716,346.687 37.905 C 349.613 33.806,349.501 33.328,345.625 33.344 C 344.227 33.350,342.917 33.422,342.713 33.503 M276.425 35.894 C 275.870 36.409,275.768 39.370,276.292 39.768 C 276.526 39.946,278.371 39.990,285.625 39.995 L 294.667 40.000 294.667 49.750 L 294.667 59.500 284.512 59.500 C 275.503 59.500,274.328 59.530,274.095 59.762 C 273.667 60.190,273.717 63.426,274.156 63.661 C 274.368 63.774,277.933 63.833,284.572 63.833 L 294.667 63.833 294.667 72.167 C 294.667 82.282,294.298 81.214,297.768 81.137 C 299.688 81.094,300.212 81.032,300.337 80.833 C 300.431 80.685,300.496 77.183,300.497 72.208 L 300.500 63.833 310.625 63.831 C 316.715 63.829,320.850 63.765,321.000 63.670 C 321.198 63.545,321.250 63.126,321.250 61.667 C 321.250 60.208,321.198 59.788,321.000 59.663 C 320.850 59.568,316.715 59.504,310.625 59.503 L 300.500 59.500 300.500 49.750 L 300.500 40.000 309.655 40.000 C 317.755 40.000,318.840 39.970,319.071 39.738 C 319.549 39.260,319.440 36.425,318.924 35.909 L 318.515 35.500 297.683 35.500 L 276.851 35.500 276.425 35.894 M178.529 40.109 C 178.383 40.370,178.427 40.520,179.163 42.250 C 179.364 42.722,179.804 44.163,179.916 44.716 C 179.970 44.984,180.167 45.244,180.380 45.330 C 180.639 45.434,180.287 45.482,179.208 45.489 L 177.667 45.500 177.667 42.667 L 177.667 39.833 178.175 39.833 C 178.599 39.833,178.658 39.879,178.529 40.109 M185.833 42.667 L 185.833 45.500 184.708 45.489 C 183.865 45.482,183.677 45.441,183.958 45.328 C 184.708 45.027,184.342 43.725,182.659 40.708 L 182.171 39.833 184.002 39.833 L 185.833 39.833 185.833 42.667 M254.000 42.250 L 254.000 43.667 244.917 43.667 L 235.833 43.667 235.833 42.250 L 235.833 40.833 244.917 40.833 L 254.000 40.833 254.000 42.250 M279.444 43.444 C 279.254 43.635,279.322 44.685,279.593 45.739 C 280.147 47.892,280.396 48.783,280.689 49.667 C 281.251 51.360,281.525 52.080,281.832 52.667 C 281.999 52.987,282.420 53.874,282.766 54.636 C 283.544 56.347,283.517 56.333,286.072 56.333 C 287.936 56.333,288.203 56.297,288.496 56.004 C 288.860 55.640,288.854 55.610,288.114 54.090 C 287.076 51.957,285.693 47.378,285.244 44.586 C 285.036 43.295,285.130 43.333,282.189 43.333 C 280.740 43.333,279.506 43.383,279.444 43.444 M310.149 43.792 C 310.051 44.044,309.864 44.810,309.732 45.494 C 309.162 48.449,307.662 53.190,306.812 54.727 C 306.510 55.273,306.499 55.723,306.779 56.032 C 307.191 56.487,311.146 56.483,311.559 56.027 C 312.356 55.146,314.203 50.479,315.098 47.083 C 316.174 43.001,316.361 43.333,312.993 43.333 L 310.325 43.333 310.149 43.792 M254.000 48.750 L 254.000 50.000 244.917 50.000 L 235.833 50.000 235.833 48.750 L 235.833 47.500 244.917 47.500 L 254.000 47.500 254.000 48.750 M206.972 48.991 C 206.899 49.199,204.202 51.635,203.667 51.977 C 203.438 52.123,203.213 52.282,203.167 52.330 C 202.364 53.172,200.455 52.125,198.389 49.708 L 197.641 48.833 202.334 48.833 C 205.217 48.833,207.006 48.894,206.972 48.991 M178.595 49.595 C 178.263 49.927,178.252 49.853,178.798 50.968 C 179.053 51.490,179.399 52.367,179.566 52.917 C 179.733 53.467,179.995 54.254,180.149 54.667 L 180.427 55.417 182.382 55.464 L 184.338 55.511 184.502 55.078 C 184.597 54.827,184.606 54.527,184.523 54.364 C 184.445 54.210,184.334 53.838,184.277 53.539 C 184.176 53.004,183.406 51.246,183.129 50.918 C 183.051 50.826,182.759 50.431,182.479 50.042 L 181.971 49.333 180.414 49.333 C 179.221 49.333,178.796 49.395,178.595 49.595 M254.000 55.333 L 254.000 56.667 244.917 56.667 L 235.833 56.667 235.833 55.333 L 235.833 54.000 244.917 54.000 L 254.000 54.000 254.000 55.333 M332.833 57.614 C 332.167 57.856,332.167 57.862,332.167 68.417 C 332.167 76.952,332.205 78.655,332.403 78.926 C 332.769 79.427,363.221 79.433,364.667 78.933 C 366.806 78.192,367.725 77.187,368.404 74.845 C 368.777 73.559,368.800 58.413,368.430 57.907 C 368.199 57.591,333.681 57.307,332.833 57.614 M250.559 61.893 C 251.305 62.865,252.991 64.534,254.742 66.031 C 254.829 66.106,253.273 66.167,251.283 66.167 L 247.667 66.167 247.667 64.250 C 247.667 61.627,247.711 61.667,244.783 61.667 C 242.026 61.667,242.167 61.535,242.167 64.117 L 242.167 66.167 238.481 66.167 L 234.796 66.167 236.389 64.659 C 237.266 63.829,238.403 62.592,238.917 61.909 L 239.852 60.667 244.736 60.667 L 249.620 60.667 250.559 61.893 M168.926 61.370 C 168.749 61.623,168.667 62.126,168.667 62.954 C 168.667 64.950,168.268 64.833,175.083 64.833 C 178.246 64.833,180.833 64.874,180.833 64.923 C 180.833 66.002,174.772 69.336,169.716 71.038 C 168.219 71.542,168.542 75.000,170.064 74.761 C 171.078 74.602,175.664 73.192,176.333 72.833 C 176.636 72.671,176.650 72.794,176.699 76.089 C 176.741 78.910,176.794 79.541,177.000 79.674 C 177.158 79.775,182.676 79.819,191.917 79.793 L 206.583 79.750 207.554 79.288 C 209.929 78.159,210.500 76.605,210.500 71.275 C 210.500 68.596,210.463 68.158,210.208 67.850 L 209.917 67.497 197.699 67.457 C 185.492 67.417,185.481 67.416,185.785 67.083 C 186.537 66.258,187.333 65.199,187.333 65.025 C 187.333 64.882,190.814 64.833,200.928 64.833 C 209.980 64.833,214.630 64.776,214.844 64.661 C 215.128 64.509,215.167 64.300,215.167 62.917 C 215.167 61.533,215.128 61.324,214.844 61.173 C 214.627 61.056,207.161 61.000,191.854 61.000 L 169.186 61.000 168.926 61.370 M362.667 67.923 C 362.667 74.452,362.665 74.460,361.631 74.821 C 361.283 74.942,357.347 75.000,349.475 75.000 L 337.833 75.000 337.833 68.500 L 337.833 62.000 350.250 62.000 L 362.667 62.000 362.667 67.923 M205.000 72.842 C 205.000 76.048,205.886 75.831,192.792 75.832 L 182.333 75.833 182.333 73.500 L 182.333 71.167 193.667 71.167 L 205.000 71.167 205.000 72.842 M79.000 126.667 L 30.750 126.751 79.042 126.792 C 111.152 126.820,127.333 126.777,127.333 126.667 C 127.333 126.575,127.315 126.519,127.292 126.541 C 127.269 126.564,105.537 126.620,79.000 126.667 M30.459 127.068 C 30.510 127.151,30.385 127.175,30.180 127.122 C 29.940 127.059,29.700 127.133,29.502 127.332 C 29.333 127.501,29.158 127.602,29.113 127.558 C 28.992 127.437,27.333 128.184,27.333 128.359 C 27.333 128.443,27.165 128.579,26.958 128.661 C 26.734 128.752,47.695 128.809,79.250 128.803 C 108.217 128.799,131.784 128.760,131.623 128.718 C 131.461 128.676,131.366 128.582,131.412 128.508 C 131.499 128.367,129.516 127.425,128.721 127.231 C 128.462 127.167,128.195 127.033,128.128 126.933 C 128.056 126.826,128.004 126.820,128.003 126.917 C 128.001 127.027,121.207 127.069,107.875 127.042 C 49.617 126.921,30.372 126.928,30.459 127.068 " stroke="none" fill="#3c7cbc" fill-rule="evenodd"></path><path id="path2" d="M93.000 25.517 C 91.860 26.103,87.546 28.210,79.833 31.948 C 78.229 32.725,75.342 34.131,73.417 35.071 C 71.492 36.012,69.017 37.217,67.917 37.748 C 62.237 40.493,59.388 41.878,55.750 43.664 C 53.550 44.744,50.775 46.095,49.583 46.666 C 48.392 47.237,45.654 48.565,43.500 49.616 C 39.164 51.732,36.009 53.269,31.750 55.337 C 30.192 56.094,27.484 57.409,25.734 58.259 L 22.551 59.805 22.443 60.944 C 22.384 61.571,22.335 69.902,22.335 79.458 L 22.333 96.833 22.703 96.833 C 22.906 96.833,23.375 96.730,23.744 96.605 C 24.114 96.479,24.829 96.257,25.333 96.112 C 25.837 95.967,26.662 95.729,27.167 95.583 C 27.671 95.438,28.496 95.200,29.000 95.055 C 29.504 94.910,30.217 94.697,30.583 94.583 C 30.950 94.469,31.738 94.244,32.333 94.083 C 32.929 93.923,33.717 93.696,34.083 93.580 C 34.450 93.464,35.200 93.237,35.750 93.077 C 36.300 92.917,37.087 92.685,37.500 92.561 C 37.912 92.437,39.037 92.110,40.000 91.835 C 40.962 91.559,42.125 91.222,42.583 91.086 C 45.799 90.132,47.576 89.619,48.625 89.344 L 49.167 89.202 49.167 103.535 C 49.167 117.119,49.182 117.863,49.458 117.755 C 49.826 117.612,51.513 117.062,52.500 116.764 C 53.218 116.547,54.381 116.285,56.917 115.767 C 59.363 115.267,65.668 114.499,67.333 114.498 C 67.929 114.498,68.911 114.451,69.514 114.394 L 70.612 114.290 70.717 89.790 C 70.774 76.315,70.853 65.258,70.891 65.220 C 70.929 65.182,71.513 65.387,72.189 65.677 C 72.864 65.966,73.567 66.262,73.750 66.334 C 73.933 66.407,74.496 66.627,75.000 66.825 C 75.504 67.023,76.067 67.254,76.250 67.339 C 76.433 67.424,77.146 67.710,77.833 67.975 C 79.444 68.596,91.145 73.288,91.583 73.488 C 92.037 73.696,94.526 74.667,94.604 74.667 C 94.638 74.667,94.667 63.454,94.667 49.750 C 94.667 29.917,94.624 24.837,94.458 24.854 C 94.344 24.865,93.688 25.163,93.000 25.517 M98.667 89.208 C 98.667 94.731,98.717 103.019,98.777 107.625 L 98.888 116.000 99.966 116.000 C 102.189 116.000,109.227 117.226,112.917 118.257 C 116.575 119.278,121.107 120.800,123.417 121.781 C 123.967 122.015,124.642 122.300,124.917 122.415 C 125.192 122.531,126.860 123.335,128.625 124.204 L 131.833 125.783 131.833 109.136 C 131.833 93.429,131.817 92.484,131.542 92.395 C 131.381 92.344,131.025 92.202,130.750 92.081 C 130.475 91.960,129.669 91.630,128.958 91.347 C 127.230 90.660,125.161 89.829,124.750 89.658 C 124.256 89.452,121.597 88.372,120.167 87.797 C 119.479 87.521,118.692 87.197,118.417 87.078 C 118.142 86.958,117.354 86.634,116.667 86.358 C 113.502 85.084,108.906 83.216,108.417 83.003 C 108.233 82.923,106.658 82.281,104.917 81.576 C 103.175 80.871,101.137 80.041,100.388 79.731 C 99.639 79.420,98.945 79.167,98.846 79.167 C 98.720 79.167,98.667 82.149,98.667 89.208 M260.055 109.750 C 260.055 110.392,260.086 110.634,260.122 110.288 C 260.158 109.942,260.157 109.417,260.120 109.121 C 260.083 108.825,260.054 109.108,260.055 109.750 M260.073 116.333 C 260.073 118.763,260.096 119.756,260.125 118.542 C 260.153 117.327,260.153 115.340,260.125 114.125 C 260.096 112.910,260.073 113.904,260.073 116.333 M73.294 117.285 C 73.501 117.324,73.801 117.323,73.960 117.281 C 74.120 117.239,73.950 117.207,73.583 117.209 C 73.217 117.211,73.086 117.245,73.294 117.285 M76.466 117.291 C 77.227 117.322,78.427 117.322,79.133 117.290 C 79.839 117.259,79.217 117.234,77.750 117.234 C 76.283 117.234,75.706 117.260,76.466 117.291 M67.274 117.615 C 67.199 117.689,66.788 117.757,66.361 117.765 C 65.933 117.773,65.171 117.830,64.667 117.892 C 64.162 117.954,63.337 118.041,62.833 118.085 C 62.329 118.129,61.204 118.281,60.333 118.423 C 59.462 118.565,58.038 118.797,57.167 118.938 C 54.135 119.432,48.106 120.749,45.750 121.432 C 45.292 121.565,44.542 121.783,44.083 121.916 C 42.218 122.459,38.272 123.727,37.640 123.987 C 37.426 124.075,36.575 124.380,35.750 124.664 C 34.925 124.948,34.025 125.284,33.750 125.411 C 33.475 125.538,32.987 125.749,32.667 125.879 C 30.631 126.706,26.973 126.644,79.075 126.656 C 124.438 126.666,128.482 126.632,126.512 126.252 C 126.304 126.212,126.047 126.108,125.941 126.020 C 125.836 125.933,125.712 125.860,125.667 125.858 C 125.534 125.853,124.998 125.665,123.833 125.216 C 122.724 124.788,118.476 123.380,116.833 122.895 C 116.329 122.746,115.617 122.531,115.250 122.416 C 113.397 121.839,108.483 120.650,105.000 119.935 C 101.632 119.244,95.559 118.267,93.417 118.072 C 92.775 118.013,91.875 117.928,91.417 117.882 C 90.958 117.836,90.083 117.788,89.472 117.774 C 88.861 117.761,88.305 117.694,88.236 117.625 C 88.167 117.556,87.917 117.509,87.681 117.520 C 87.266 117.539,87.269 117.544,87.750 117.668 C 88.025 117.739,83.587 117.802,77.887 117.810 C 70.893 117.819,67.506 117.768,67.467 117.651 C 67.436 117.557,67.349 117.540,67.274 117.615 M30.641 126.874 C 30.805 127.038,128.013 127.121,127.958 126.957 C 127.935 126.887,106.001 126.812,79.216 126.790 C 52.431 126.768,30.573 126.806,30.641 126.874 " stroke="none" fill="#059ae2" fill-rule="evenodd"></path><path id="path3" d="M212.961 40.954 C 213.261 40.991,213.711 40.990,213.961 40.952 C 214.212 40.914,213.967 40.884,213.417 40.885 C 212.867 40.886,212.662 40.917,212.961 40.954 M190.885 43.583 C 190.886 44.133,190.917 44.338,190.954 44.039 C 190.991 43.739,190.990 43.289,190.952 43.039 C 190.914 42.788,190.884 43.033,190.885 43.583 M334.824 44.292 L 334.250 44.917 334.875 44.342 C 335.457 43.808,335.577 43.667,335.449 43.667 C 335.422 43.667,335.140 43.948,334.824 44.292 M170.297 45.456 C 170.782 45.490,171.532 45.490,171.964 45.456 C 172.396 45.421,172.000 45.394,171.083 45.394 C 170.167 45.395,169.813 45.423,170.297 45.456 M178.375 45.456 C 178.810 45.490,179.523 45.490,179.958 45.456 C 180.394 45.422,180.037 45.393,179.167 45.393 C 178.296 45.393,177.940 45.422,178.375 45.456 M184.121 45.454 C 184.417 45.490,184.942 45.491,185.288 45.455 C 185.634 45.419,185.392 45.389,184.750 45.388 C 184.108 45.387,183.825 45.417,184.121 45.454 M223.875 56.625 C 225.044 56.653,226.956 56.653,228.125 56.625 C 229.294 56.596,228.338 56.572,226.000 56.572 C 223.662 56.572,222.706 56.596,223.875 56.625 M240.387 56.625 C 242.937 56.651,247.062 56.651,249.553 56.625 C 252.045 56.599,249.958 56.578,244.917 56.578 C 239.875 56.578,237.837 56.599,240.387 56.625 M261.542 56.625 C 262.710 56.653,264.623 56.653,265.792 56.625 C 266.960 56.596,266.004 56.572,263.667 56.572 C 261.329 56.572,260.373 56.596,261.542 56.625 M221.226 69.917 C 221.225 70.742,221.254 71.100,221.288 70.713 C 221.323 70.327,221.324 69.652,221.289 69.213 C 221.255 68.775,221.226 69.092,221.226 69.917 M187.637 75.792 C 190.600 75.817,195.400 75.817,198.304 75.792 C 201.208 75.766,198.783 75.745,192.917 75.745 C 187.050 75.745,184.674 75.766,187.637 75.792 M204.567 117.917 C 204.567 119.292,204.593 119.832,204.624 119.117 C 204.655 118.403,204.655 117.278,204.624 116.617 C 204.592 115.957,204.566 116.542,204.567 117.917 M26.703 128.390 C 26.494 128.506,26.379 128.657,26.448 128.726 C 26.517 128.795,26.463 128.809,26.328 128.758 C 26.194 128.707,25.296 129.065,24.333 129.554 C 20.822 131.337,19.748 131.897,19.667 131.989 C 19.621 132.041,19.283 132.231,18.917 132.412 C 18.337 132.698,17.906 132.951,16.648 133.747 C 16.500 133.840,16.068 134.087,15.689 134.295 C 13.858 135.300,4.529 141.837,4.000 142.486 C 3.954 142.542,3.504 142.924,3.000 143.336 C 2.496 143.747,1.671 144.477,1.167 144.957 C 0.663 145.438,0.194 145.832,0.125 145.832 C 0.056 145.833,0.000 145.946,0.000 146.083 C 0.000 146.396,0.220 146.398,1.167 146.095 C 1.579 145.963,2.367 145.744,2.917 145.607 C 3.467 145.470,4.404 145.235,5.000 145.083 C 9.484 143.944,10.744 143.647,15.583 142.584 C 19.740 141.671,24.791 140.679,28.333 140.079 C 29.204 139.931,30.517 139.708,31.250 139.583 C 38.283 138.387,49.539 136.989,56.667 136.427 C 63.573 135.883,64.994 135.808,72.833 135.579 C 86.504 135.179,101.210 135.717,111.833 137.005 C 113.346 137.188,114.808 137.336,115.083 137.334 C 115.358 137.332,116.408 137.446,117.417 137.589 C 118.425 137.731,120.075 137.959,121.083 138.096 C 125.323 138.670,130.049 139.428,133.583 140.099 C 137.754 140.891,139.023 141.144,141.042 141.587 C 141.660 141.722,142.710 141.953,143.375 142.098 C 144.646 142.377,145.733 142.636,147.458 143.071 C 149.860 143.676,150.618 143.878,151.250 144.079 C 151.617 144.196,152.404 144.422,153.000 144.581 C 154.129 144.884,154.864 145.104,156.644 145.676 C 157.228 145.863,157.751 145.971,157.807 145.916 C 157.891 145.831,155.408 143.333,155.240 143.333 C 155.210 143.333,154.900 143.066,154.551 142.740 C 154.202 142.414,153.598 141.914,153.208 141.629 C 152.819 141.344,152.500 141.048,152.500 140.972 C 152.500 140.896,152.415 140.833,152.310 140.833 C 152.206 140.833,152.037 140.731,151.935 140.607 C 151.654 140.263,148.373 137.833,148.189 137.833 C 148.100 137.833,148.003 137.767,147.972 137.685 C 147.906 137.510,145.262 135.707,143.530 134.657 C 142.859 134.250,142.109 133.789,141.863 133.634 C 141.618 133.479,141.079 133.179,140.667 132.968 C 140.254 132.756,139.879 132.539,139.833 132.484 C 139.726 132.357,139.503 132.242,135.550 130.275 C 133.735 129.371,132.039 128.520,131.780 128.383 C 131.522 128.246,131.265 128.179,131.211 128.234 C 131.156 128.289,131.203 128.333,131.315 128.333 C 131.428 128.333,131.477 128.403,131.424 128.487 C 131.372 128.572,131.461 128.676,131.623 128.718 C 131.784 128.760,108.217 128.799,79.250 128.803 C 47.695 128.809,26.734 128.752,26.958 128.661 C 27.165 128.579,27.333 128.433,27.333 128.339 C 27.333 128.116,27.172 128.129,26.703 128.390 " stroke="none" fill="#0962b5" fill-rule="evenodd"></path><path id="path4" d="M243.798 61.624 C 244.375 61.656,245.275 61.656,245.798 61.623 C 246.322 61.590,245.850 61.563,244.750 61.564 C 243.650 61.564,243.222 61.591,243.798 61.624 M184.667 114.250 L 184.667 120.667 186.000 120.667 L 187.333 120.667 187.334 118.375 C 187.336 115.097,187.769 114.000,189.062 114.000 C 190.207 114.000,190.351 114.402,190.386 117.689 L 190.417 120.583 191.887 120.632 L 193.358 120.680 193.304 117.215 C 193.257 114.208,193.209 113.674,192.938 113.177 C 191.997 111.449,189.348 111.216,187.708 112.715 L 187.333 113.058 187.333 110.446 L 187.333 107.833 186.000 107.833 L 184.667 107.833 184.667 114.250 M247.000 114.250 L 247.000 120.667 248.422 120.667 C 249.693 120.667,249.857 120.631,249.968 120.333 C 250.086 120.012,250.107 120.010,250.502 120.287 C 251.627 121.075,253.815 120.912,254.840 119.963 C 256.652 118.287,256.545 113.635,254.667 112.400 C 253.418 111.578,251.590 111.557,250.475 112.351 L 250.000 112.689 250.000 110.261 L 250.000 107.833 248.500 107.833 L 247.000 107.833 247.000 114.250 M261.540 114.208 L 261.583 120.583 262.958 120.632 L 264.333 120.680 264.333 114.257 L 264.333 107.833 262.915 107.833 L 261.496 107.833 261.540 114.208 M176.017 108.835 C 175.523 109.013,174.960 109.292,174.767 109.454 C 174.291 109.855,173.251 111.006,173.244 111.141 C 173.241 111.201,173.151 111.407,173.044 111.599 C 172.937 111.791,172.813 112.129,172.769 112.349 C 172.299 114.697,172.301 114.532,172.740 116.785 C 173.738 121.903,181.877 122.321,183.430 117.333 C 183.705 116.447,183.699 116.492,183.542 116.529 C 183.473 116.546,182.876 116.389,182.215 116.182 C 180.985 115.796,180.667 115.818,180.667 116.287 C 180.667 116.786,179.853 117.952,179.381 118.128 C 178.484 118.464,178.358 118.476,177.723 118.293 C 175.225 117.570,174.723 113.089,176.945 111.341 C 178.022 110.494,180.165 111.183,180.587 112.512 C 180.677 112.794,180.789 112.846,181.141 112.766 C 181.384 112.711,182.014 112.583,182.540 112.482 C 183.462 112.305,183.493 112.282,183.389 111.857 C 182.734 109.204,179.117 107.721,176.017 108.835 M194.500 109.750 L 194.500 111.000 196.000 111.000 L 197.500 111.000 197.500 109.750 L 197.500 108.500 196.000 108.500 L 194.500 108.500 194.500 109.750 M222.706 114.542 L 222.750 120.583 224.125 120.632 L 225.500 120.680 225.517 116.465 C 225.529 113.484,225.580 112.421,225.692 112.833 C 225.779 113.154,225.957 113.792,226.087 114.250 C 226.218 114.708,226.447 115.533,226.598 116.083 C 227.161 118.143,227.291 118.609,227.585 119.625 L 227.886 120.667 229.101 120.667 L 230.316 120.667 230.597 119.708 C 231.078 118.070,231.836 115.455,232.082 114.583 C 232.634 112.635,232.640 112.657,232.654 116.708 L 232.667 120.667 234.083 120.667 L 235.500 120.667 235.500 114.578 L 235.500 108.490 233.390 108.537 L 231.280 108.583 231.067 109.250 C 230.950 109.617,230.728 110.404,230.574 111.000 C 230.420 111.596,230.199 112.421,230.083 112.833 C 229.780 113.917,229.366 115.504,229.237 116.083 L 229.126 116.583 228.996 116.167 C 228.870 115.760,228.568 114.634,227.769 111.583 C 227.553 110.758,227.282 109.727,227.166 109.292 L 226.957 108.500 224.810 108.500 L 222.663 108.500 222.706 114.542 M257.069 108.727 C 257.021 108.852,257.005 109.396,257.033 109.935 L 257.083 110.917 258.583 110.964 L 260.083 111.012 260.028 109.756 L 259.974 108.500 258.565 108.500 C 257.530 108.500,257.133 108.560,257.069 108.727 M283.205 108.868 C 278.419 110.754,278.608 119.054,283.470 120.507 C 286.425 121.391,289.227 120.468,290.306 118.256 C 291.073 116.682,291.051 116.613,289.625 116.190 C 288.074 115.731,288.048 115.734,287.909 116.368 C 287.372 118.813,284.386 119.057,283.257 116.749 C 282.393 114.983,282.905 112.165,284.240 111.340 C 285.446 110.594,287.268 111.085,287.697 112.271 C 287.881 112.779,287.966 112.845,288.330 112.762 C 288.561 112.709,289.200 112.582,289.750 112.478 C 290.300 112.375,290.770 112.274,290.794 112.254 C 290.969 112.109,289.977 110.460,289.341 109.843 C 287.942 108.482,285.263 108.057,283.205 108.868 M291.833 114.583 L 291.833 120.667 293.164 120.667 L 294.494 120.667 294.539 116.464 L 294.583 112.262 295.058 114.006 C 295.723 116.450,295.932 117.194,296.466 119.000 L 296.934 120.583 298.163 120.583 C 299.332 120.583,299.399 120.563,299.511 120.167 C 299.998 118.449,300.381 117.127,300.597 116.417 C 300.736 115.958,300.918 115.321,301.001 115.000 C 301.650 112.482,301.643 112.465,301.655 116.708 L 301.667 120.667 303.083 120.667 L 304.500 120.667 304.500 114.578 L 304.500 108.490 302.385 108.537 L 300.270 108.583 299.736 110.583 C 299.442 111.683,299.072 113.033,298.915 113.583 C 298.757 114.133,298.571 114.846,298.501 115.167 C 298.309 116.050,298.024 116.678,298.009 116.250 C 298.003 116.067,297.778 115.129,297.509 114.167 C 297.241 113.204,296.984 112.229,296.940 112.000 C 296.895 111.771,296.786 111.358,296.698 111.083 C 296.610 110.808,296.405 110.115,296.242 109.542 L 295.947 108.500 293.890 108.500 L 291.833 108.500 291.833 114.583 M306.000 114.583 L 306.000 120.667 307.500 120.667 L 309.000 120.667 309.000 114.583 L 309.000 108.500 307.500 108.500 L 306.000 108.500 306.000 114.583 M310.167 109.750 L 310.167 111.000 312.083 111.000 L 314.000 111.000 314.000 115.833 L 314.000 120.667 315.500 120.667 L 317.000 120.667 317.000 115.833 L 317.000 111.000 318.833 111.000 L 320.667 111.000 320.667 109.750 L 320.667 108.500 315.417 108.500 L 310.167 108.500 310.167 109.750 M325.667 114.583 L 325.667 120.667 327.083 120.667 L 328.500 120.667 328.500 118.583 L 328.500 116.500 330.148 116.500 C 334.224 116.500,336.156 114.334,335.005 111.057 C 334.297 109.044,332.927 108.500,328.566 108.500 L 325.667 108.500 325.667 114.583 M358.417 108.894 C 356.944 109.586,356.337 110.501,356.334 112.034 C 356.333 113.051,357.324 114.667,357.949 114.667 C 358.069 114.667,358.167 114.725,358.167 114.796 C 358.167 114.867,358.898 115.099,359.792 115.310 C 362.487 115.948,363.429 116.632,363.009 117.644 C 362.419 119.069,359.419 118.833,359.066 117.333 C 358.758 116.025,358.771 116.034,357.667 116.319 C 357.346 116.402,356.802 116.517,356.457 116.576 C 355.753 116.695,355.742 116.880,356.354 118.250 C 357.774 121.425,364.248 121.826,365.775 118.833 C 367.072 116.289,365.567 114.149,361.797 113.176 C 359.568 112.601,359.071 112.218,359.504 111.410 C 360.047 110.395,362.218 110.685,362.769 111.846 C 363.012 112.358,363.159 112.491,363.417 112.433 C 363.600 112.391,364.220 112.267,364.795 112.156 L 365.840 111.955 365.730 111.353 C 365.292 108.956,361.209 107.584,358.417 108.894 M331.563 111.252 C 333.164 112.301,332.069 114.094,329.792 114.154 L 328.500 114.188 328.500 112.487 L 328.500 110.786 329.813 110.876 C 330.642 110.933,331.287 111.071,331.563 111.252 M203.208 111.980 C 202.726 112.146,202.183 112.418,202.000 112.584 C 201.675 112.878,201.667 112.874,201.667 112.442 L 201.667 112.000 200.250 112.000 L 198.833 112.000 198.833 116.340 L 198.833 120.680 200.208 120.632 L 201.583 120.583 201.667 117.833 C 201.769 114.467,201.971 114.000,203.329 114.000 C 204.464 114.000,204.583 114.339,204.583 117.551 C 204.583 120.841,204.489 120.661,206.208 120.664 L 207.500 120.667 207.496 117.375 C 207.492 113.167,207.263 112.539,205.512 111.921 C 204.599 111.599,204.288 111.607,203.208 111.980 M211.496 111.893 C 210.325 112.145,209.298 112.878,208.933 113.720 C 208.595 114.502,208.490 114.408,209.949 114.641 C 211.486 114.888,211.446 114.891,211.548 114.502 C 211.767 113.665,214.667 113.572,214.667 114.402 C 214.667 114.688,214.099 114.894,212.333 115.248 C 209.167 115.883,208.583 116.354,208.583 118.280 C 208.583 120.081,209.301 120.703,211.417 120.734 C 212.777 120.753,213.754 120.479,214.528 119.861 C 214.769 119.669,214.835 119.692,215.012 120.028 C 215.424 120.810,217.998 121.058,217.752 120.292 C 217.685 120.085,217.578 118.567,217.513 116.917 C 217.448 115.267,217.312 113.721,217.210 113.481 C 216.590 112.017,214.113 111.329,211.496 111.893 M240.000 111.905 C 234.522 113.124,235.531 120.734,241.167 120.710 C 244.792 120.694,246.845 118.002,245.732 114.723 C 244.948 112.413,242.695 111.305,240.000 111.905 M268.846 111.925 C 268.257 112.053,267.732 112.219,267.679 112.295 C 267.627 112.371,267.356 112.591,267.079 112.785 C 264.904 114.301,265.216 118.663,267.601 120.089 C 269.321 121.116,272.364 121.001,274.038 119.846 C 274.380 119.610,274.661 119.347,274.663 119.261 C 274.665 119.175,274.833 118.927,275.037 118.710 C 275.484 118.234,275.264 118.011,274.333 117.995 C 274.012 117.990,273.429 117.923,273.038 117.848 C 272.376 117.720,272.302 117.743,271.995 118.174 C 271.210 119.276,268.995 118.864,268.592 117.542 L 268.478 117.167 271.822 117.167 L 275.167 117.167 275.167 116.636 C 275.167 113.032,272.592 111.113,268.846 111.925 M338.855 111.947 C 336.448 112.517,335.573 114.325,337.546 114.652 L 338.750 114.851 339.147 114.390 C 339.714 113.733,341.434 113.601,342.004 114.171 C 342.490 114.656,342.405 114.701,339.990 115.240 C 336.285 116.066,335.148 117.433,336.396 119.562 C 337.217 120.963,339.970 121.226,341.717 120.070 C 342.073 119.834,342.379 119.666,342.398 119.696 C 342.417 119.726,342.521 119.956,342.629 120.208 C 342.819 120.649,342.874 120.667,344.052 120.667 C 345.519 120.667,345.539 120.652,345.237 119.797 C 345.071 119.327,345.000 118.352,345.000 116.556 C 345.000 112.176,343.294 110.897,338.855 111.947 M349.065 111.902 C 347.576 112.263,346.654 112.999,346.412 114.017 C 346.312 114.443,346.333 114.454,347.569 114.654 L 348.829 114.857 349.220 114.403 C 349.723 113.818,351.245 113.628,351.915 114.067 C 352.714 114.591,352.325 114.830,349.984 115.253 C 347.187 115.758,346.209 116.426,346.037 117.949 C 345.752 120.479,349.141 121.731,351.730 120.053 C 352.376 119.634,352.656 119.700,352.664 120.274 C 352.668 120.563,353.088 120.667,354.254 120.667 C 355.494 120.667,355.558 120.607,355.248 119.739 C 355.088 119.289,355.012 118.279,355.007 116.525 C 354.999 113.450,354.543 112.290,353.255 112.062 C 353.161 112.045,352.746 111.951,352.333 111.853 C 351.366 111.623,350.137 111.641,349.065 111.902 M194.575 112.211 C 194.530 112.328,194.514 114.259,194.539 116.503 L 194.583 120.583 196.042 120.631 L 197.500 120.680 197.500 116.340 L 197.500 112.000 196.078 112.000 C 195.083 112.000,194.632 112.063,194.575 112.211 M257.039 116.292 L 257.083 120.583 258.542 120.631 L 260.000 120.680 260.000 116.340 L 260.000 112.000 258.497 112.000 L 256.994 112.000 257.039 116.292 M270.983 113.848 C 271.579 114.026,272.405 114.917,272.232 115.195 C 272.083 115.437,268.500 115.365,268.500 115.120 C 268.500 114.208,269.860 113.511,270.983 113.848 M242.131 114.260 C 243.370 115.128,243.291 117.749,242.005 118.414 C 239.923 119.491,238.325 116.206,240.040 114.375 C 240.464 113.923,241.563 113.862,242.131 114.260 M252.410 114.261 C 253.872 115.219,253.197 118.667,251.548 118.667 C 250.471 118.667,250.000 117.956,250.000 116.333 C 250.000 114.345,251.097 113.401,252.410 114.261 M214.833 116.766 C 214.833 117.702,213.900 118.620,212.799 118.767 C 210.548 119.067,210.732 117.430,212.997 117.001 C 213.469 116.911,213.981 116.764,214.136 116.674 C 214.555 116.430,214.833 116.467,214.833 116.766 M342.500 116.656 C 342.500 117.929,340.780 119.068,339.337 118.751 C 338.112 118.482,339.191 117.005,340.618 116.998 C 340.874 116.996,341.271 116.891,341.500 116.764 C 341.992 116.491,342.500 116.436,342.500 116.656 M352.422 116.958 C 352.077 118.338,350.292 119.269,349.156 118.661 C 348.308 118.207,349.363 117.013,350.630 116.992 C 350.879 116.988,351.308 116.882,351.583 116.756 C 352.379 116.391,352.553 116.433,352.422 116.958 M72.250 117.394 C 71.150 117.474,69.631 117.537,68.875 117.536 C 68.119 117.534,67.500 117.598,67.500 117.678 C 67.500 117.759,72.073 117.819,77.875 117.813 C 83.706 117.806,87.996 117.741,87.671 117.664 C 87.352 117.589,87.030 117.565,86.955 117.611 C 86.879 117.658,86.436 117.605,85.971 117.493 C 84.947 117.247,75.255 117.178,72.250 117.394 M88.333 117.644 C 88.333 117.727,88.591 117.787,88.905 117.779 C 89.219 117.770,89.450 117.721,89.418 117.668 C 89.318 117.507,88.333 117.485,88.333 117.644 " stroke="none" fill="#04aceb" fill-rule="evenodd"></path></g></svg>
