<svg id="图层_1" data-name="图层 1" xmlns="http://www.w3.org/2000/svg" xmlns:xlink="http://www.w3.org/1999/xlink" viewBox="0 0 583.57 328.26"><defs><style>.cls-1{fill:url(#未命名的渐变_14);}.cls-2{fill:url(#未命名的渐变_14-2);}.cls-3{fill:url(#未命名的渐变_14-3);}.cls-4{fill:url(#未命名的渐变_6);}.cls-5{fill:url(#未命名的渐变_6-2);}.cls-6{fill:url(#未命名的渐变_4);}.cls-7{fill:#0f7dc1;}</style><linearGradient id="未命名的渐变_14" x1="168.41" y1="-12.92" x2="168.41" y2="43.97" gradientUnits="userSpaceOnUse"><stop offset="0" stop-color="#0084cf"/><stop offset="1" stop-color="#8dc21f"/></linearGradient><linearGradient id="未命名的渐变_14-2" x1="79.44" y1="132.36" x2="79.44" y2="157.75" xlink:href="#未命名的渐变_14"/><linearGradient id="未命名的渐变_14-3" x1="148.04" y1="95.6" x2="148.04" y2="128.08" xlink:href="#未命名的渐变_14"/><linearGradient id="未命名的渐变_6" x1="113.09" y1="75.36" x2="113.09" y2="206.7" gradientUnits="userSpaceOnUse"><stop offset="0.1" stop-color="#009ee7"/><stop offset="0.24" stop-color="#009ee7"/></linearGradient><linearGradient id="未命名的渐变_6-2" x1="190.32" y1="148.77" x2="190.32" y2="214.02" xlink:href="#未命名的渐变_6"/><linearGradient id="未命名的渐变_4" x1="141.23" y1="190.61" x2="141.23" y2="229.4" gradientUnits="userSpaceOnUse"><stop offset="0.24" stop-color="#009ee7"/><stop offset="1" stop-color="#005bab"/></linearGradient></defs><title>未标题-5</title><polygon class="cls-1" points="168.11 42.22 134.11 59.3 134.11 83.98 168.11 66.21 168.11 144.41 202.72 157.74 202.72 73.86 168.11 42.22"/><path class="cls-2" d="M95,170.34l-31.16,7.93v37.11A152.91,152.91,0,0,1,95,203.27Z"/><path class="cls-3" d="M162,198.4V147.11l-27.85-10.46v60.73c2.44-.09,4.89-.16,7.36-.16A183.71,183.71,0,0,1,162,198.4Z"/><path class="cls-4" d="M129.24,129.75,162,142.53V75.36l-97.74,48v49.29l36.55-10.19v39.36a176.65,176.65,0,0,1,28.47-4.16Z"/><path class="cls-5" d="M212.52,167.14l-44.41-18.37v50.42a163.2,163.2,0,0,1,44.41,13Z"/><path class="cls-6" d="M212.52,215.87a163.2,163.2,0,0,0-44.41-13q-3.06-.45-6.15-.79a183.71,183.71,0,0,0-20.49-1.18c-2.47,0-4.92.06-7.36.16-1.63.07-3.25.18-4.87.29a176.65,176.65,0,0,0-28.47,4.16q-2.91.67-5.75,1.44A152.91,152.91,0,0,0,63.86,219.1,120.69,120.69,0,0,0,34.1,240.64c29.83-9.47,67.24-15.13,107.89-15.13,40,0,76.8,5.46,106.37,14.64A124.6,124.6,0,0,0,212.52,215.87Z"/><path class="cls-7" d="M267.68,166.84v-5.57h65.09v5.57H294.94a22.4,22.4,0,0,1-4.45,3.89h36.16v17.8h-8.06v-2.78H286.88v2.78h-8.35V178.24c-.93.38-2.5,1-4.73,1.95-1.85.56-3.25,1-4.17,1.39l-3.34-5.84a68.29,68.29,0,0,0,18.92-8.9Zm-.28-22.26v-5h5.29V126.22h6.67c.19-.55.37-1.2.56-1.94.37-1.12.65-2,.83-2.51l7.79.56a8.67,8.67,0,0,0-.55,2,15,15,0,0,0-.84,1.94h11.13V151c.18,5.19-2.23,7.89-7.23,8.07H283l-1.39-5.57a62,62,0,0,0,6.68.28c2.4,0,3.61-1.2,3.61-3.61v-5.57H279.09a23.23,23.23,0,0,1-6.4,15.3,21.61,21.61,0,0,0-2.78-1.95,14.46,14.46,0,0,0-3.06-1.94,18.07,18.07,0,0,0,5.56-11.41Zm11.69-5.84v.84h12.79V131H279.09Zm5,13.91L281,146.81l4.73-1.95c1.12,1.86,2.23,3.8,3.34,5.84Zm.28-13.35q-2.5-5-3.06-5.84l5-2a9.63,9.63,0,0,1,.83,1.11,21,21,0,0,1,2.23,4.73ZM286.88,176v4.45h31.71V176Zm43.39-16.69a68,68,0,0,1-15-4.18,75.3,75.3,0,0,1-14.19,4.45A42.85,42.85,0,0,0,298,154a65.67,65.67,0,0,0,10.57-2.22q-3.33-2.5-6.95-5.57l3.06-2.5H300.5v-5h29.77V144a33.93,33.93,0,0,1-8.35,7.51,82.92,82.92,0,0,0,11.13,2.22C331.75,156.17,330.83,158,330.27,159.33Zm-26.7-20.87a63,63,0,0,0-5-4.17q6.1-1.93,5.56-7.79v-2.22h22.26v5c0,1.49.83,2.23,2.5,2.23h4.45l-1.39,5h-6.68q-5.56,0-5.56-5v-2.23h-9.18v.56Q310.79,135.12,303.57,138.46Zm19.19,5.29h-15.3a28.78,28.78,0,0,0,8.07,5.28A22.72,22.72,0,0,0,322.76,143.75Z"/><path class="cls-7" d="M344.12,134v-6.4h9.46v-5.56h8.35v5.56h26.42v-5.56h8.07v5.56h9.46V134h-9.46v21.42h11.4v6.12H391.13q6.12,5.56,17.81,9.18c-.38.74-.93,2-1.67,3.62-.75,1.48-1.3,2.69-1.67,3.61a93.75,93.75,0,0,1-13.08-6.67v3.61H378.89v5.29h24.48v5.56H346.63v-5.56h24.48V174.9H357.2v-3.61a92.37,92.37,0,0,1-13.08,7.23,31.11,31.11,0,0,1-1.39-3.62c-.74-1.48-1.3-2.68-1.67-3.61q10.85-3.61,17.53-9.74H341.9v-6.12h11.68V134Zm34.77,30.32v5H390a45.69,45.69,0,0,1-8.07-7.79H368a63.15,63.15,0,0,1-8.06,7.79h11.13v-5Zm-17-30.32v3.9h26.42V134Zm0,8.63v3.89h26.42v-3.89Zm0,8.62v4.17h26.42v-4.17Z"/><path class="cls-7" d="M419.73,133.18v-8.07h60.08v8.07H454.22v25.59h28.93v8.07H454.22v21.69h-8.9V166.84H416.39v-8.07h28.93V133.18ZM433.36,156q-3.35-4.17-10.29-12.52c-.75-.93-1.3-1.67-1.67-2.23l6.12-4.72q6.39,6.67,12.24,13.9Zm31.71,0L459,150.7q4.73-4.72,12-13.35c-.18.19,0-.09.56-.83l6.4,4.72Q471.75,149,465.07,156Z"/><path class="cls-7" d="M551.25,154.6a24.5,24.5,0,0,1-2.23-2.78l-2.5-2.51q-6.4.28-19.47.56-14.47.56-20.86.83c-4.46.38-7.79.75-10,1.12L492,144a57.47,57.47,0,0,0,8.07-5,162.71,162.71,0,0,0,18.08-17.53l9.18,3.9A253.1,253.1,0,0,1,507,143.19q3.06,0,10.29-.28l22.26-.83-7.52-7.79,6.12-4.45q11.69,11.41,20,19.75ZM498.4,188.53V157.1h52v31.43h-8.62v-4.17H507v4.17ZM507,164.61v12.8h34.77v-12.8Z"/><path class="cls-7" d="M280.55,207.27l-2.77.71a4.21,4.21,0,0,0-4.13-3.17q-4.44.31-4.76,6c.16,3.81,1.75,5.84,4.76,6.11q3.64,0,4.29-4l2.77.87q-1.18,5.47-7.06,5.48-7.38-.41-7.77-8.41.39-8,7.77-8.49Q278.89,202.59,280.55,207.27Z"/><path class="cls-7" d="M295.13,218.93h-2.7v-6.82q0-3.09-2.61-3.09-2.7.15-2.94,3.41v6.5h-2.69V202h2.69v7.21a4.69,4.69,0,0,1,4-2.3c2.91-.05,4.33,1.54,4.28,4.76Z"/><path class="cls-7" d="M299,205.13v-2.7h2.78v2.7Zm.08,13.8V207.19h2.7v11.74Z"/><path class="cls-7" d="M316.67,218.93H314v-6.82c0-2.06-.82-3.07-2.62-3s-2.78,1.14-2.93,3.1v6.74h-2.7V207.19h2.7v2.06a4.77,4.77,0,0,1,4-2.3q4.37-.07,4.28,4.68Z"/><path class="cls-7" d="M332.13,218.93h-2.62A3.81,3.81,0,0,1,329,217c-1,1.37-2.72,2.09-5.15,2.14q-3.66-.16-3.81-3.25t4.36-3.73c2.49-.42,4-.85,4.44-1.27.16-1.48-.74-2.17-2.69-2.06q-2.62,0-3.18,2l-2.53-.48q.87-3.57,5.71-3.49c3.75-.1,5.55,1.48,5.39,4.76v4.84A4.28,4.28,0,0,0,332.13,218.93ZM329,213.85v-1.27a7.39,7.39,0,0,1-3.41,1.12c-2,.31-2.91,1-2.85,2.14s.71,1.56,2.3,1.5C327.42,217.19,328.74,216,329,213.85Z"/><path class="cls-7" d="M354.46,202.59H359V219h-2.69v-14.2h-.08q-.65,2.22-4.44,14.12h-2.7l-4.76-14h-.08V219h-2.62V202.59h4.44L350.34,216h.08Z"/><path class="cls-7" d="M368.8,207q5.79.24,6,6.19-.16,6-6.11,6.11-5.7-.31-6-6Q362.93,207.19,368.8,207Zm-.08,10.31c2.12,0,3.2-1.4,3.26-4s-1.14-4-3.26-4.13c-2.11.06-3.2,1.43-3.25,4.13S366.61,217.16,368.72,217.26Z"/><path class="cls-7" d="M381.16,217.19v1.74h-2.78V202h2.78v7.13a4.47,4.47,0,0,1,4-2.22q4.68.24,4.83,6.11c0,4.07-1.66,6.14-5,6.19A4.1,4.1,0,0,1,381.16,217.19Zm-.08-4.76v1.27q.17,3.41,3,3.56c2,0,3-1.42,3-4.28-.11-2.54-1.11-3.86-3-4C382.19,209.23,381.19,210.36,381.08,212.43Z"/><path class="cls-7" d="M393.28,205.13v-2.7h2.78v2.7Zm.08,13.8V207.19h2.7v11.74Z"/><path class="cls-7" d="M399.93,218.93V202h2.77v17Z"/><path class="cls-7" d="M415.22,215.36l2.93.4q-1.26,3.41-5.94,3.41-6-.24-6.27-5.87.24-6.2,6-6.43,6,.09,6.11,6.43v.63h-9.36a3.25,3.25,0,0,0,3.41,3.41Q414.67,217.34,415.22,215.36Zm-6.5-3.17h6.58q-.17-3.18-3.25-3.33A3.12,3.12,0,0,0,408.72,212.19Z"/><path class="cls-7" d="M442.39,207.27l-2.77.71a4.21,4.21,0,0,0-4.13-3.17q-4.44.31-4.75,6c.15,3.81,1.74,5.84,4.75,6.11,2.44,0,3.86-1.35,4.29-4l2.77.87q-1.19,5.47-7.06,5.48c-4.91-.27-7.51-3.07-7.77-8.41.26-5.34,2.86-8.17,7.77-8.49Q440.73,202.59,442.39,207.27Z"/><path class="cls-7" d="M458.48,202.59H463V219h-2.7v-14.2h-.08q-.63,2.22-4.44,14.12h-2.69l-4.76-14h-.08V219h-2.62V202.59h4.44L454.36,216h.07Z"/><path class="cls-7" d="M467.82,219V202.59h2.78V219Z"/><path class="cls-7" d="M487.88,205h-5.56v14h-2.85V205h-5.55v-2.3h14Z"/><path class="cls-7" d="M504.42,213h-3.81v6h-2.85V202.59h6.9c3.75.16,5.74,1.85,5.95,5.08Q510.52,212.91,504.42,213Zm-.32-8.09h-3.49v5.87h3.49q3.5,0,3.57-3C507.57,205.9,506.38,204.94,504.1,204.89Z"/><path class="cls-7" d="M525.58,218.93H523a3.81,3.81,0,0,1-.56-1.9c-1,1.37-2.72,2.09-5.16,2.14q-3.64-.16-3.8-3.25,0-3.18,4.36-3.73c2.48-.42,4-.85,4.44-1.27.16-1.48-.74-2.17-2.69-2.06q-2.62,0-3.18,2l-2.54-.48c.59-2.38,2.49-3.54,5.72-3.49,3.75-.1,5.55,1.48,5.39,4.76v4.84A4.36,4.36,0,0,0,525.58,218.93Zm-3.17-5.08v-1.27A7.39,7.39,0,0,1,519,213.7c-2,.31-2.91,1-2.86,2.14s.72,1.56,2.3,1.5C520.88,217.19,522.2,216,522.41,213.85Z"/><path class="cls-7" d="M540.32,218.93H537.7a3.92,3.92,0,0,1-.55-1.9c-1,1.37-2.73,2.09-5.16,2.14q-3.65-.16-3.81-3.25,0-3.18,4.37-3.73c2.48-.42,4-.85,4.44-1.27.16-1.48-.74-2.17-2.7-2.06-1.74,0-2.8.66-3.17,2l-2.54-.48c.58-2.38,2.49-3.54,5.71-3.49,3.76-.1,5.55,1.48,5.4,4.76v4.84A4.36,4.36,0,0,0,540.32,218.93Zm-3.17-5.08v-1.27a7.43,7.43,0,0,1-3.41,1.12c-2,.31-2.91,1-2.86,2.14s.72,1.56,2.3,1.5C535.61,217.19,536.94,216,537.15,213.85Z"/><path class="cls-7" d="M543.08,214l2.78-.63q.63,3.88,4.44,3.81c2.06-.06,3.17-.9,3.33-2.54q.24-1.76-2.86-2.7a16.19,16.19,0,0,0-2.22-.55q-5.07-1-4.83-4.61c.26-2.8,2.22-4.28,5.86-4.44s6,1.46,6.67,4.52l-2.86.64q-.46-2.87-3.65-2.86c-1.9.06-2.93.77-3.09,2.14q-.31,1.76,3.57,2.46a21.8,21.8,0,0,1,2.78.88c2.48.9,3.7,2.35,3.64,4.36-.15,3.07-2.24,4.65-6.26,4.76Q544.11,219.33,543.08,214Z"/></svg>
